# xmcd
#
# Track frame offsets: 
#        150
#        16296
#        34264
#        49680
#
# Disc length: 917 seconds
#
# Revision: 0
# Processed by: cddbd v1.5.2PL0 Copyright (c) Steve Scherf et al.
# Submitted via: ExactAudioCopy v1.0b2
#
DISCID=29039304
DTITLE=Rachel Williams - Sampler EP
DYEAR=2011
DGENRE=Country
TTITLE0=Once
TTITLE1=Leave Me Like You Loved Me
TTITLE2=How To Stay
TTITLE3=Rise Higher
EXTD=
EXTT0=
EXTT1=
EXTT2=
EXTT3=
PLAYORDER=
